<?xml version="1.0" encoding="UTF-8" standalone="no"?>
<!-- Created with Inkscape (http://www.inkscape.org/) -->

<svg
   xmlns:dc="http://purl.org/dc/elements/1.1/"
   xmlns:cc="http://creativecommons.org/ns#"
   xmlns:rdf="http://www.w3.org/1999/02/22-rdf-syntax-ns#"
   xmlns:svg="http://www.w3.org/2000/svg"
   xmlns="http://www.w3.org/2000/svg"
   xmlns:sodipodi="http://sodipodi.sourceforge.net/DTD/sodipodi-0.dtd"
   xmlns:inkscape="http://www.inkscape.org/namespaces/inkscape"
   width="117.17418mm"
   height="109.9636mm"
   viewBox="0 0 117.17418 109.9636"
   version="1.1"
   id="svg8"
   inkscape:version="0.92.4 (f8dce91, 2019-08-02)"
   sodipodi:docname="shopping-cart-icon2.svg">
  <defs
     id="defs2" />
  <sodipodi:namedview
     id="base"
     pagecolor="#ffffff"
     bordercolor="#666666"
     borderopacity="1.0"
     inkscape:pageopacity="0.0"
     inkscape:pageshadow="2"
     inkscape:zoom="0.35"
     inkscape:cx="244.57734"
     inkscape:cy="-46.204736"
     inkscape:document-units="mm"
     inkscape:current-layer="layer1"
     showgrid="false"
     inkscape:window-width="1373"
     inkscape:window-height="845"
     inkscape:window-x="67"
     inkscape:window-y="27"
     inkscape:window-maximized="1" />
  <metadata
     id="metadata5">
    <rdf:RDF>
      <cc:Work
         rdf:about="">
        <dc:format>image/svg+xml</dc:format>
        <dc:type
           rdf:resource="http://purl.org/dc/dcmitype/StillImage" />
        <dc:title></dc:title>
      </cc:Work>
    </rdf:RDF>
  </metadata>
  <g
     inkscape:label="Capa 1"
     inkscape:groupmode="layer"
     id="layer1"
     transform="translate(-41.122246,-26.64473)">
    <g
       id="g3771"
       transform="matrix(0.26458333,0,0,0.26458333,40.67217,22.439822)">
      <g
         id="g3715">
	<path
   id="path3713"
   d="m 444.09,93.103 c -2.698,-3.699 -7.006,-5.888 -11.584,-5.888 H 109.92 c -0.625,0 -1.249,0.038 -1.85,0.119 L 94.794,49.064 c -1.376,-3.958 -4.406,-7.113 -8.3,-8.646 L 19.586,14.134 c -7.374,-2.887 -15.695,0.735 -18.591,8.1 -2.891,7.369 0.73,15.695 8.1,18.591 l 60.768,23.872 74.381,214.399 c -3.283,1.144 -6.065,3.663 -7.332,7.187 l -21.506,59.739 c -1.318,3.663 -0.775,7.733 1.468,10.916 2.24,3.183 5.883,5.078 9.773,5.078 h 11.044 c -6.844,7.616 -11.044,17.646 -11.044,28.675 0,23.718 19.298,43.012 43.012,43.012 23.714,0 43.012,-19.294 43.012,-43.012 0,-11.029 -4.2,-21.059 -11.044,-28.675 h 93.776 c -6.847,7.616 -11.048,17.646 -11.048,28.675 0,23.718 19.294,43.012 43.013,43.012 23.718,0 43.012,-19.294 43.012,-43.012 0,-11.029 -4.2,-21.059 -11.043,-28.675 h 13.433 c 6.599,0 11.947,-5.349 11.947,-11.948 0,-6.599 -5.349,-11.947 -11.947,-11.947 H 143.647 l 13.319,-36.996 c 1.72,0.724 3.578,1.152 5.523,1.152 h 210.278 c 6.234,0 11.751,-4.027 13.65,-9.959 l 59.739,-186.387 c 1.401,-4.364 0.632,-9.129 -2.066,-12.828 z M 169.659,409.807 c -10.543,0 -19.116,-8.573 -19.116,-19.116 0,-10.543 8.573,-19.117 19.116,-19.117 10.543,0 19.116,8.574 19.116,19.117 0,10.543 -8.573,19.116 -19.116,19.116 z m 157.708,0 c -10.543,0 -19.117,-8.573 -19.117,-19.116 0,-10.543 8.574,-19.117 19.117,-19.117 10.542,0 19.116,8.574 19.116,19.117 0,10.543 -8.574,19.116 -19.116,19.116 z M 402.52,148.149 H 329.359 V 115.89 h 83.499 z m -21.067,65.712 h -52.094 v -37.038 h 63.967 z m -146.882,0 v -37.038 h 66.113 v 37.038 z m 66.113,28.677 v 31.064 H 234.571 V 242.538 Z M 139.115,176.823 h 66.784 v 37.038 h -53.933 z m 95.456,-28.674 V 115.89 h 66.113 v 32.259 z M 205.898,115.89 v 32.259 H 129.164 L 117.973,115.89 Z m -43.982,126.648 h 43.982 v 31.064 h -33.206 z m 167.443,31.065 v -31.064 h 42.909 l -9.955,31.064 z"
   inkscape:connector-curvature="0" />

</g>
      <g
         id="g3717">
</g>
      <g
         id="g3719">
</g>
      <g
         id="g3721">
</g>
      <g
         id="g3723">
</g>
      <g
         id="g3725">
</g>
      <g
         id="g3727">
</g>
      <g
         id="g3729">
</g>
      <g
         id="g3731">
</g>
      <g
         id="g3733">
</g>
      <g
         id="g3735">
</g>
      <g
         id="g3737">
</g>
      <g
         id="g3739">
</g>
      <g
         id="g3741">
</g>
      <g
         id="g3743">
</g>
      <g
         id="g3745">
</g>
    </g>
    <path
       style="fill:#ffffff;stroke-width:2.85714293"
       d="m 301.14141,509.8054 c -10.74428,-7.33394 -19.99855,-22.89937 -19.99855,-33.63703 0,-4.01366 2.57143,-12.34128 5.71428,-18.50583 3.14286,-6.16454 5.71429,-11.57923 5.71429,-12.03268 0,-0.45346 -3.69972,-0.82446 -8.22159,-0.82446 -15.83872,0 -16.4896,-5.49889 -4.65406,-39.31923 5.90526,-16.87443 12.55419,-33.89506 14.7754,-37.82363 3.76069,-6.65139 1.50816,-14.41653 -32.73784,-112.85714 l -36.7764,-105.71429 -29.76418,-11.97322 c -16.37031,-6.58528 -32.01419,-13.34617 -34.76419,-15.02421 -7.39071,-4.5098 -6.39708,-16.77424 1.65629,-20.4436 5.54371,-2.525878 13.06539,-0.48598 45.00001,12.20411 l 38.3437,15.23692 7.47678,21.42858 7.47679,21.42857 165.1158,0.73769 c 116.16335,0.51898 166.25309,1.68153 168.9518,3.92126 2.10977,1.75098 3.83597,5.76842 3.83597,8.92766 0,7.81498 -56.68642,184.79377 -61.75682,192.80884 l -4.04578,6.39543 -111.70233,0.74743 -111.70233,0.7474 -6.77752,18.57143 c -3.72764,10.21429 -6.79886,18.89286 -6.82494,19.28571 -0.026,0.39286 53.26449,0.71429 118.42348,0.71429 110.56156,0 118.65219,0.33874 121.1863,5.07377 4.38163,8.18714 -1.33263,14.92623 -12.65631,14.92623 -11.24997,0 -11.52417,0.51534 -5.31583,9.99049 5.96843,9.10894 6.09457,29.15651 0.25457,40.44985 -10.23217,19.78689 -38.53163,27.09215 -58.1002,14.99812 -5.33071,-3.29457 -11.78843,-10.04372 -14.35043,-14.99812 -5.84003,-11.29334 -5.71388,-31.34091 0.25457,-40.44985 2.49815,-3.81278 4.54215,-7.6204 4.54215,-8.4614 0,-0.841 -21.21429,-1.52909 -47.14286,-1.52909 -25.92857,0 -47.0973,0.96429 -47.04162,2.14286 0.0557,1.17857 1.9387,5.35714 4.18448,9.28571 5.48317,9.5918 5.34243,30.1866 -0.27123,39.68977 -11.80309,19.98103 -39.65181,26.61183 -58.30164,13.88166 z m 35.8456,-20.58443 c 13.29463,-13.2946 5.24961,-32.987 -13.47632,-32.987 -12.1372,0 -19.51069,7.18589 -19.51069,19.01426 0,19.21488 19.48947,27.47028 32.98701,13.97274 z m 156.62768,1.09134 c 15.12677,-11.89871 6.18525,-34.07834 -13.7384,-34.07834 -18.22352,0 -25.684,22.68937 -11.20526,34.07834 4.14048,3.25692 9.7528,5.92166 12.47183,5.92166 2.71903,0 8.33134,-2.66474 12.47183,-5.92166 z M 361.14286,341.94826 V 324.8054 h -22.85715 c -14.9146,0 -22.85714,1.10777 -22.85714,3.18796 0,1.75338 2.23036,9.46767 4.95634,17.14286 l 4.95634,13.95489 h 17.9008 17.90081 z m 94.28571,0 V 324.8054 h -34.28571 -34.28572 v 17.14286 17.14285 h 34.28572 34.28571 z m 66.62109,1.89173 c 2.64411,-8.38811 4.80748,-16.1024 4.80748,-17.14285 0,-1.04046 -10.28571,-1.89174 -22.85714,-1.89174 h -22.85714 v 17.14286 17.14285 h 18.04965 18.04966 z m -160.9068,-64.74888 v -20 h -34.28572 c -23.88748,0 -34.28571,0.99419 -34.28571,3.27809 0,1.80294 2.7437,10.80294 6.09712,20 l 6.09711,16.72191 h 28.1886 28.1886 z m 94.28571,0 v -20 h -34.28571 -34.28572 v 20 20 h 34.28572 34.28571 z m 86.42857,2.9769 c 2.75,-9.35835 5,-18.35657 5,-19.99604 0,-1.89691 -11.94803,-2.98086 -32.85714,-2.98086 h -32.85714 v 20 20 l 27.85714,-0.004 27.85714,-0.004 5,-17.01518 z M 361.14286,216.23397 v -17.14286 h -45.52694 -45.52693 l 5.78923,17.14286 5.78923,17.14286 h 39.7377 39.73771 z m 94.28571,0 v -17.14286 h -34.28571 -34.28572 v 17.14286 17.14286 h 34.28572 34.28571 z m 107.03217,2.33857 c 2.41803,-8.14236 4.3964,-15.85665 4.3964,-17.14286 0,-1.28621 -19.28571,-2.33857 -42.85714,-2.33857 h -42.85714 v 17.14286 17.14286 h 38.46074 38.46074 z"
       id="path3773"
       inkscape:connector-curvature="0"
       transform="scale(0.26458333)" />
  </g>
</svg>
